<?xml version="1.0" encoding="UTF-8"?>
<svg id="Layer_2" data-name="Layer 2" xmlns="http://www.w3.org/2000/svg" viewBox="0 0 1010.37 408.19">
  <defs>
    <style>
      .cls-1 {
        fill: #fff;
      }
    </style>
  </defs>
  <g id="Layer_2-2" data-name="Layer 2">
    <path class="cls-1" d="m232.63,386.34c-.01-2.98-.41-5.94-.45-8.92-.08-3.16.12-6.36-.58-9.46-6.86-2.93-13.79-5.69-20.64-8.65-1.85-.83-3.76-1.72-5.83-1.6-6.96.08-13.91.17-20.87.19-7.63.31-15.26.63-22.89.42,1.75-3.6,4.86-6.23,7.15-9.45.86-1.19,1.13-3.15-.09-4.19-1.57-1.5-3.29-2.86-4.57-4.64,4.06-.45,8.28-.49,12.04-2.3,3.66-1.8,7.75-2.2,11.65-3.21,2.77-.69,5.66-.8,8.42-1.55,2.74-.71,4.28-3.28,6.24-5.1,5.73-5.36,11.61-10.55,17.55-15.66,2.14-1.84,4.57-3.36,6.41-5.53,1.9-2.17,3.29-4.74,4.43-7.38.85-2.07,2.56-3.86,2.58-6.21-1.37-.64-2.99-1.03-3.91-2.31-1.03-1.26-1.77-2.97-3.43-3.51-1.89-.59-3.91-.24-5.83-.56-3.07-.48-5.93-1.74-8.94-2.48-2.2-.62-4.7-.94-6.27-2.79-3.66-4.07-8.24-7.33-11.21-11.99-2.04-3.08-3.95-6.28-6.56-8.92-3.9-4.08-8.61-7.25-12.67-11.16-3.1-3.01-4.25-7.34-5.63-11.3-1-2.76-.44-5.7.08-8.49.61-3.03.11-6.1-.23-9.12,4.21-1.48,9.09-1.33,12.73-4.23,1.09-.95,2.66-2.16,2.12-3.82-2.24-1.75-5.46-2.11-7.24-4.49-1.45-2.08-2.43-4.46-4.05-6.42-2.09-2.6-3.94-5.73-3.86-9.16.49-3.35,1.91-6.47,2.65-9.77.44-1.31.52-2.93,1.64-3.88,1.3-.64,2.83-.54,4.23-.85,3.81-.6,6.72-3.33,9.76-5.46-.12-.74-.16-1.5-.39-2.22-1.33-.79-2.85-1.18-4.21-1.91-2.8-1.48-5.01-3.93-6.45-6.73-1.97-3.84-3.2-8.04-3.76-12.31-1.02-7.04-4.68-14.06-10.99-17.69-2.29-1.46-5.11-.95-7.66-.87-1.09-2.09-1.6-4.4-1.9-6.72,3.54,1.43,7.15,2.7,10.86,3.68,3.92.88,6.56,4.25,10.18,5.8,2.31.88,4.84.28,7.21.79,1.65.69,2.94,2,4.36,3.06.55-.57,1.09-1.13,1.64-1.69,4.85.27,9.75-.51,14.56.41,1.87.34,3.74.72,5.61,1.07.35-.16,1.05-.49,1.4-.64-.08-3.18-2.44-5.86-5.27-7.06-2.84-1.27-6.22-1.43-8.55-3.69.65-.77,1.3-1.53,1.96-2.3-.57-.47-1.06-1.31-1.92-1.04-1.93.21-3.85.42-5.78.35,0-1.17,0-2.34,0-3.51-3.04-.72-6.04-1.56-9-2.55.04-1.15.09-2.28.13-3.42-3.05.7-6.19.74-9.29.48.63-1.63,2.04-2.7,3.31-3.81-.03-.53-.06-1.06-.08-1.58-2.02-.07-4.08.2-6.07-.23-1.84-.88-3.18-2.51-4.46-4.04-2.11-2.52-3.26-5.88-6.15-7.69-2.56-1.64-5.27-3.23-8.32-3.72-3.61-.55-7.6-.51-10.72,1.66-2.98,1.8-3.99,5.3-5.27,8.31-.99,2.17-1.01,4.79-2.74,6.59.67,3.86.61,7.78,1.14,11.66,1.66,1.22,3.68,1.77,5.4,2.86,1.85,2.22,1.64,5.41,1.18,8.08-.44,2.89-3.55,4.05-5.89,5.1-1.68.84-3.3-.4-4.93-.71-.95.24-1.7.93-2.5,1.45-3.72,0-7.42-.66-10.99-1.69-2.37-.7-4.26-2.35-6.43-3.45-1.25-.65-2.71-.39-4.06-.45-1.53-2.84-3.03-5.73-4.08-8.78-.47-1.17.62-2.01,1.25-2.82,2.08-2.23,2.83-5.3,4.73-7.67,1.76-2.38,4.3-3.99,6.39-6.05,1.37-1.33,1.38-3.36,1.72-5.12.98-.74,1.92-1.59,3.09-2.01,1.5-.35,3.06-.24,4.59-.31-.82-1.75-2.26-3.29-4.18-3.78-1.82-.45-3.68.01-5.41.59-1.87.69-3.88-.33-5.76.3-4.05.96-7.33,3.62-11.06,5.32-1.62.71-2.66,2.19-3.64,3.6-.32.03-.96.09-1.28.12-2.4-3.94-3.89-8.4-6.73-12.08-1.27-1.71-3.28-3.12-3.25-5.48,1.85.25,4.02.43,5.21,2.08,1.78,2.57.99,6.06,2.71,8.66,1.1,1.7,4.02.37,4.1-1.46.09-3.61-.76-7.54-3.39-10.19-1.9-1.96-3.89-3.83-5.73-5.84,2.34-1.09,4.81-2.42,7.48-2.05,3.56.46,7.21.87,10.77.26,1.31-.25,1.98-1.55,2.05-2.78-3.32-1.82-7.28-1.89-10.85-3.02-2.94-.64-5.33-2.93-8.41-3.01-2.21-.05-4.68-.25-6.58,1.1-1.56,1.12-2.23,3.01-3.08,4.65-2.3-.49-4.4-1.59-6.68-2.13-2.2-.51-4.28.59-6.24,1.44-.05.44-.1.89-.14,1.33,2.57.49,5.15,1.23,7.16,2.99.02.6.05,1.19.08,1.79-3.24-.94-6.6-.5-9.89-.11.6,1.4,1.28,2.76,2.08,4.06-1.09-.1-2.41-1.01-3.35-.14,3.26,6,9.55,9.29,15.35,12.36,1.98,1.11,4.4,1.91,5.59,3.99,1.27,2.19,2.43,4.47,3.16,6.9-5.29.06-10.55-.53-15.82-.9-2.98.14-5.96.68-8.95.32-2.78-.34-5.6-.22-8.38-.53-2.52-.34-3.91-2.81-6.16-3.71-1.31-.34-2.74-.37-4.06-.04-1.3.6-2.29,1.73-3.61,2.29-2.62,0-5.22-.55-7.82-.82-5.83-.91-11.69-1.56-17.55-2.24-2.38-.27-4.93-.93-7.14.36,3.19,1.99,7.06,2.43,10.27,4.37,1.6.96,2.81,2.7,4.77,2.96,4.9.92,9.93-.96,14.82.23.65.4.66,1.23.75,1.91.14,1.72.24,3.46.58,5.16,1.24-.56,2.12-1.59,2.82-2.72,1.26-.31,2.58-.47,3.75-1.05,1.18-.68,2.06-1.76,3.03-2.7,3.51.69,6.78,3.02,10.49,2.27,3.83-.71,7.65-1.6,11.56-1.69,3.61-.05,7.2-.52,10.81-.38,2.37.09,4.74-.17,7.06-.7,2.17,5.5,3.99,11.14,6.5,16.51,1.82,3.86,3.18,7.94,5.33,11.63,1.31,2.37,3.87,3.49,6.13,4.72.84.54,2.09,1.01,1.98,2.23.37,7.43,2.24,14.65,3.62,21.93.34,1.51.85,3.45,2.59,3.86,3.02.81,6.23.55,9.25,1.36,1.38.31,1.75,1.84,2.18,2.99,1.02,3.32,2.42,6.52,3.08,9.95,1.62,6.01,1.58,12.29,1.71,18.47-.1,3.97.96,7.99-.04,11.92-.41,1.98-1.27,3.92-1.09,5.98.31,1.69,1.43,3.17,1.46,4.93.08,2.83-.15,5.67.15,8.5,1.6,13.23,3.26,26.46,5.76,39.56.23,4.5.4,9.01.92,13.49.85,9.93,1.76,19.86,3.03,29.74.28,2.62.23,5.27.24,7.91.14,4.59-1.48,9.1-.57,13.69.64.38,1.28.76,1.93,1.14.1,3.47.54,7.1-.69,10.43-1.04,2.97-3.41,5.34-6.16,6.79-2.17.71-4.51.28-6.76.39-9.1.14-18.21-.09-27.29.47-3.35.05-6.71,0-10.07.06-1.07,2.18-1.98,4.43-2.94,6.66-.74,1.76-1.77,3.5-1.69,5.49.05,12.08.09,24.17.04,36.26h153.82c.34-7.29-.52-14.56-.49-21.85ZM92.28,110.86c-.28,0-.85-.02-1.14-.02-.52-1.03-1.04-2.06-1.56-3.1,1.12-.8,2.47-1.02,3.81-1.1-.02,1.48-.46,2.9-1.11,4.22Zm4.17-2.86c.85-.99,2.26-.74,3.42-.91-.26,4.54-2.67,8.51-3.49,12.91-3.55-3-2.86-8.82.07-12Zm51.3,241.63c.1-2.92-.12-5.88.58-8.74,1.26-.02,2.53,0,3.79.1,1.23,5.72,1.95,12.18-1.34,17.37-.46,0-.92-.01-1.37-.02-1.11-2.76-1.76-5.73-1.65-8.72Z"/>
    <g>
      <path class="cls-1" d="m110.97,178.61c-1.68-.15-3.59-.32-5.58-.84-1.34-.33-2.42-.91-3.29-1.61-5.91,8.84-11.81,17.67-17.71,26.52.86,3.26,1.73,6.51,2.6,9.77,3.24-.86,6.49-1.72,9.73-2.61,5.1-10.38,10.22-20.75,15.33-31.12-.35-.03-.71-.07-1.08-.1Z"/>
      <path class="cls-1" d="m60.73,99.02c-3.13-2-6.11-4.39-8.51-7.54-3.44-.76-6.88-1.52-10.31-2.29,1.15,2.49,2.31,4.98,3.47,7.46,5.12.79,10.23,1.58,15.35,2.36Z"/>
      <path class="cls-1" d="m130.45,127.84c-1.16-.53-2.6-1.19-4.01-2.22l-2.03-1.49-.34-2.5c-.27-1.95-.4-3.83-.52-5.66-.14-2.05-.27-3.98-.59-5.8l-.52-2.97,2.04-2.13s.03-.07.05-.11l-4.84.22c-.49.02-.99.03-1.48.04-.37,0-.73,0-1.06.02-.38,1.75-1.12,3.9-2.98,5.7-.9.89-1.84,1.67-2.74,2.43-1.24,1.04-2.31,1.94-3.01,2.88l-.14.19c-.49.61-.97,1.55-1.48,2.55-.67,1.32-1.48,2.91-2.67,4.43.39.92.83,1.83,1.28,2.73.98.14,2.05.43,3.14,1,.99.51,1.91,1.08,2.72,1.59.99.63,1.93,1.22,2.65,1.43,2.64.76,5.18,1.23,7.54,1.39.74-.46,1.66-.92,2.79-1.21l1.29-.33,1.31.25c.94.18,1.72.46,2.35.69.53-.24,1.17-.53,1.56-.77.16-1.07.16-1.75.13-2.17-.14-.07-.29-.13-.44-.2Z"/>
      <path class="cls-1" d="m190.77,146.58c.77-1,1.48-2.05,2.22-3.07,13.14,8.38,26.3,16.74,39.44,25.12-.25-2.69-.45-5.4-.73-8.09-.48-.44-1.14-.65-1.69-1-10.9-5.98-21.8-11.97-32.7-17.94-1.91-.19-3.97-.14-6.12-.08-1.07.03-2.17.06-3.28.06l-3.46,3.58-4.2-3.13c-.5-.37-.97-.75-1.38-1.09-.45-.37-.91-.74-1.29-1-.39-.03-.85-.03-1.33-.04-.31,0-.63,0-.97-.02,1.13,2.64,1.93,5.5,2.36,8.48v.08c.42,3.1,1.21,6.01,2.37,8.67.03-.02.07-.05.1-.07,1.62,2.02,3.24,4.04,4.86,6.06.32.15.71.31,1.13.48.89.35,1.99.8,3.11,1.46l1.95,1.16.69,2.16c.32,1.02.44,1.94.53,2.61.02.16.04.32.07.48l.2,1.22c4.7,5.86,9.4,11.71,14.1,17.57,2.72-.25,5.44-.5,8.17-.75-10.62-11.6-21.25-23.19-31.87-34.79.97-.8,1.86-1.69,2.8-2.52,12.35,11.89,24.77,23.72,37.14,35.59,3.34-.29,6.68-.58,10.01-.87-.3-3.34-.57-6.69-.89-10.02-13.79-10.07-27.53-20.23-41.33-30.29Z"/>
      <path class="cls-1" d="m115.52,187.42c-.17-.9-.42-1.81-.71-2.75-3.32,8.01-6.63,16.02-9.95,24.03,2.64-.73,5.3-1.42,7.94-2.16,1.32-3.89,2.64-7.78,3.96-11.67-.2-2.42-.54-4.77-1.14-7.02l-.1-.43Z"/>
      <path class="cls-1" d="m67.06,68.33c.92.22,1.77.49,2.55.76.39-.51.85-1.01,1.37-1.48-4.11-2.5-8.22-5-12.33-7.49-2.47,1.17-4.95,2.31-7.42,3.47,3.22,1.68,6.43,3.35,9.65,5.03,1.78-.53,3.87-.82,6.19-.28Z"/>
      <path class="cls-1" d="m83.57,134.19c-.53-1.26-1.03-2.45-1.56-3.61-14.21,4.14-28.41,8.29-42.62,12.44-1.42,3.04-2.84,6.09-4.26,9.13,3.04,1.4,6.07,2.81,9.12,4.22,13.7-6.03,27.4-12.06,41.09-18.1-.63-1.37-1.21-2.74-1.77-4.08Z"/>
      <path class="cls-1" d="m87.36,142.2c-.04-.07-.08-.14-.12-.21-12,6.25-24,12.5-35.99,18.76,2.46,1.19,4.95,2.32,7.43,3.48,10.37-6.32,20.75-12.62,31.14-18.92-.91-.86-1.76-1.87-2.46-3.11Z"/>
      <path class="cls-1" d="m80.27,126.65c-.57-1.36-1.1-2.72-1.62-4.07-11.09,1.71-22.18,3.41-33.28,5.13-1.16,2.49-2.31,4.97-3.47,7.46,12.79-2.84,25.57-5.68,38.36-8.51Z"/>
      <path class="cls-1" d="m252.7,119.38c2.36-2.38,4.74-4.74,7.11-7.11-2.38-2.37-4.74-4.76-7.13-7.12-16.88,1.14-33.77,2.22-50.65,3.33-.09-1.27-.28-2.52-.43-3.78,15.34-2.02,30.68-4.05,46.03-6.07-1.9-1.95-3.86-3.84-5.77-5.78-13.66,2.71-27.32,5.43-40.98,8.15-1.23-5.46-3.3-10.73-6.12-15.56,12.32-6.75,24.61-13.53,36.94-20.26.28-2.72.48-5.45.74-8.18-13.22,8.42-26.44,16.86-39.67,25.27-.71-1.03-1.44-2.05-2.24-3.02,13.86-10.18,27.73-20.34,41.6-30.52.3-3.33.59-6.67.88-10-3.34-.31-6.67-.62-10.01-.93-12.5,11.96-24.98,23.93-37.47,35.88-.89-.86-1.8-1.7-2.75-2.5,10.72-11.7,21.45-23.4,32.14-35.12-2.72-.24-5.44-.46-8.16-.7-8.95,11.18-17.93,22.34-26.88,33.53-4.49-3.31-9.49-5.91-14.76-7.74,5.23-13.34,10.39-26.71,15.59-40.06-1.57-2.24-3.14-4.47-4.7-6.71-4.81,15.24-9.59,30.49-14.42,45.72-1.18-.34-2.39-.57-3.59-.84,4.17-16.99,8.31-34,12.48-50.99-1.91-2.77-3.85-5.52-5.77-8.28-2.69,1.89-5.39,3.78-8.07,5.67-.29.18-.17.59-.25.87-1.88,17.28-3.78,34.55-5.67,51.83-1.22-.06-2.44-.08-3.65-.09.71-16.21,1.42-32.41,2.13-48.62-2.24,1.56-4.48,3.12-6.72,4.68.32,14.7.65,29.41.96,44.12-1.7.14-3.4.33-5.1.53-3.62.75-7.24,1.62-10.67,3.01-4.94-14.58-9.88-29.16-14.84-43.73-2.64-.71-5.28-1.42-7.92-2.13,6.52,15.74,13.03,31.48,19.56,47.22-1.04.53-2.09,1.04-3.14,1.57-8.18-16.63-16.39-33.25-24.58-49.88-3.24-.87-6.48-1.74-9.72-2.61-.87,3.23-1.72,6.46-2.61,9.68,10.33,15.52,20.71,31.02,31.06,46.53-.93.68-1.82,1.4-2.74,2.1-10.48-13.66-20.95-27.32-31.43-40.97-.69,2.65-1.42,5.28-2.11,7.93,10.33,11.77,20.65,23.55,30.97,35.33-.97.91-1.91,1.85-2.82,2.83l-.05,1c-.22,4.17-3.05,7.59-6.89,8.32h-.03c-.04.07-.08.13-.12.2-.08-.05-.15-.09-.23-.14-2.26.36-4.48.41-6.69.29,1.78.93,3.55,1.85,5.33,2.78-.53.98-.95,2-1.42,3.01-.64-.28-1.29-.57-1.93-.85.25.93.45,1.89.59,2.88,1.95-1.07,4.1-2.1,6.59-2.72,2-.6,3.79-.44,4.99-.33.21.02.49.05.67.05,2.29-.74,5.29-1.46,8.53-.66h.05c3.47.9,6.42,3.46,8.1,7.03l1.45,3.09c.12-.29.24-.58.35-.87,1.21-3.01,2.87-7.12,6.97-9.67,3.9-2.65,8.76-3.49,14.86-2.56,4.26.67,7.71,2.71,10.61,4.58,3,1.89,4.66,4.53,6,6.66.53.85,1.04,1.65,1.52,2.23l.11.13c.61.73,1.29,1.54,1.85,2.02.56.03,1.22.02,1.9,0,.7-.01,1.49-.03,2.31,0l5.48.19.22,4.6,6.41-1.47-.26,6.63c1.38.39,2.79.76,4.24,1.1l4.62,1.1-.02,1.84c1.66-.04,3.61.52,5.56,2.5l.05.05,4.59,3.79-.67.78c.38.14.77.29,1.15.47.37.16.72.33,1.07.51,12.22,2.43,24.43,4.87,36.65,7.29,1.92-1.94,3.86-3.85,5.79-5.78-15.28-2.01-30.56-4.03-45.84-6.05.18-1.26.25-2.52.35-3.79,16.85,1.1,33.71,2.2,50.56,3.3Z"/>
      <path class="cls-1" d="m98.45,169.44l-.04-.19c-.21-1.1-.43-2.22-.66-3.33-6.2,7.07-12.4,14.14-18.6,21.21.7,2.64,1.43,5.28,2.12,7.92,5.95-7.75,11.9-15.5,17.85-23.25-.36-.97-.55-1.83-.67-2.36Z"/>
      <path class="cls-1" d="m48.29,83.94l2.1-1.94-2.31-5.43,5.36-.63c.04-.35.08-.7.11-1.04l.3-2.69c-3.2-1.41-6.41-2.82-9.61-4.23-3.04,1.42-6.07,2.85-9.11,4.27,1.42,3.03,2.82,6.07,4.26,9.09,2.97.86,5.93,1.73,8.9,2.6Z"/>
    </g>
    <g>
      <path class="cls-1" d="m302.03,185.19c-2.49-1.45-5.18-2.22-8.08-2.32v-.78c2.64-.55,4.97-1.54,7.01-2.95,2.03-1.42,3.63-3.21,4.79-5.37,1.16-2.16,1.73-4.63,1.73-7.4,0-3.68-.92-6.89-2.76-9.64-1.84-2.75-4.6-4.91-8.28-6.47-3.68-1.56-8.22-2.34-13.62-2.34h-30.18v72.75h32.42c5.4,0,9.98-.88,13.72-2.64,3.74-1.76,6.6-4.17,8.57-7.23,1.97-3.06,2.95-6.54,2.95-10.45,0-3.52-.76-6.56-2.27-9.13-1.51-2.57-3.52-4.58-6.01-6.03Zm-32.15-23.51h10.3c2.96,0,5.32.72,7.08,2.15,1.76,1.43,2.64,3.37,2.64,5.81,0,1.76-.43,3.25-1.29,4.47-.86,1.22-2.05,2.16-3.56,2.81-1.51.65-3.23.98-5.15.98h-10.01v-16.21Zm19.7,42.85c-1.84,1.48-4.7,2.22-8.57,2.22h-11.13v-17.68h11.47c2.28,0,4.24.38,5.88,1.15,1.64.77,2.91,1.85,3.78,3.25.88,1.4,1.32,3.04,1.32,4.93,0,2.6-.92,4.65-2.76,6.13Z"/>
      <path class="cls-1" d="m362.77,172.54c-2.36-2.36-5.14-4.14-8.35-5.35-3.21-1.2-6.73-1.81-10.57-1.81-5.47,0-10.22,1.18-14.26,3.54-4.04,2.36-7.15,5.66-9.35,9.89-2.2,4.23-3.3,9.15-3.3,14.75s1.1,10.84,3.3,15.04,5.36,7.43,9.5,9.69c4.13,2.26,9.05,3.39,14.75,3.39,4.43,0,8.34-.63,11.74-1.9,3.4-1.27,6.22-3.07,8.45-5.4,2.23-2.33,3.8-5.05,4.71-8.18l-15.19-2.49c-.46,1.2-1.13,2.23-2.03,3.08-.9.85-1.97,1.48-3.22,1.9-1.25.42-2.65.63-4.17.63-2.21,0-4.15-.46-5.81-1.39s-2.95-2.33-3.88-4.2c-.84-1.69-1.28-3.78-1.36-6.23h36.44v-4.3c0-4.52-.64-8.51-1.93-11.96-1.29-3.45-3.11-6.36-5.47-8.72Zm-24.39,6.69c1.53-.99,3.4-1.49,5.62-1.49s4.07.49,5.57,1.46c1.5.98,2.63,2.38,3.39,4.2.52,1.23.84,2.64,1.01,4.2h-20.16c.17-1.56.52-2.97,1.08-4.22.8-1.77,1.96-3.16,3.49-4.15Z"/>
      <path class="cls-1" d="m405.54,208.02c-1.06.13-1.88.2-2.47.2-1.53,0-2.64-.35-3.32-1.05-.68-.7-1.03-1.77-1.03-3.2v-25.24h9.81v-12.65h-9.81v-12.99h-17.04v12.99h-7.23v12.65h7.23v26.76c0,5.21,1.5,9.17,4.49,11.89,2.99,2.72,7.39,4.08,13.18,4.08,1.59,0,3.29-.1,5.08-.29,1.79-.2,3.65-.57,5.57-1.12l-2.2-12.4c-.46.13-1.21.26-2.27.39Z"/>
      <path class="cls-1" d="m443.73,208.02c-1.06.13-1.88.2-2.47.2-1.53,0-2.64-.35-3.32-1.05-.68-.7-1.03-1.77-1.03-3.2v-25.24h9.81v-12.65h-9.81v-12.99h-17.04v12.99h-7.23v12.65h7.23v26.76c0,5.21,1.5,9.17,4.49,11.89,2.99,2.72,7.39,4.08,13.18,4.08,1.59,0,3.29-.1,5.08-.29,1.79-.2,3.65-.57,5.57-1.12l-2.2-12.4c-.46.13-1.21.26-2.27.39Z"/>
      <path class="cls-1" d="m498.22,172.54c-2.36-2.36-5.14-4.14-8.35-5.35-3.21-1.2-6.73-1.81-10.57-1.81-5.47,0-10.22,1.18-14.26,3.54-4.04,2.36-7.15,5.66-9.35,9.89-2.2,4.23-3.3,9.15-3.3,14.75s1.1,10.84,3.3,15.04,5.36,7.43,9.5,9.69c4.13,2.26,9.05,3.39,14.75,3.39,4.43,0,8.34-.63,11.74-1.9,3.4-1.27,6.22-3.07,8.45-5.4,2.23-2.33,3.8-5.05,4.71-8.18l-15.19-2.49c-.46,1.2-1.13,2.23-2.03,3.08-.9.85-1.97,1.48-3.22,1.9-1.25.42-2.65.63-4.17.63-2.21,0-4.15-.46-5.81-1.39s-2.95-2.33-3.88-4.2c-.84-1.69-1.28-3.78-1.36-6.23h36.44v-4.3c0-4.52-.64-8.51-1.93-11.96-1.29-3.45-3.11-6.36-5.47-8.72Zm-24.39,6.69c1.53-.99,3.4-1.49,5.62-1.49s4.07.49,5.57,1.46c1.5.98,2.63,2.38,3.39,4.2.52,1.23.84,2.64,1.01,4.2h-20.16c.17-1.56.52-2.97,1.08-4.22.8-1.77,1.96-3.16,3.49-4.15Z"/>
      <path class="cls-1" d="m546.9,165.54c-.86-.1-1.68-.15-2.47-.15-3,0-5.62.87-7.89,2.61-2.26,1.74-3.88,4.42-4.86,8.03h-.59v-9.96h-16.55v54.59h17.04v-29.79c0-2.18.47-4.08,1.42-5.71.94-1.63,2.25-2.91,3.91-3.83s3.53-1.39,5.62-1.39c1.04,0,2.22.07,3.54.22s2.38.37,3.2.66v-14.84c-.72-.2-1.51-.34-2.37-.44Z"/>
    </g>
    <g>
      <path class="cls-1" d="m296.58,235.84c-3.97-2.12-8.69-3.17-14.16-3.17h-29.79v72.75h17.24v-22.71h12.06c5.57,0,10.37-1.04,14.4-3.12,4.04-2.08,7.15-4.98,9.33-8.69,2.18-3.71,3.27-8.07,3.27-13.09s-1.07-9.36-3.2-13.13c-2.13-3.78-5.18-6.72-9.16-8.84Zm-6.88,27.88c-.91,1.69-2.28,3.01-4.1,3.96-1.82.94-4.09,1.42-6.79,1.42h-8.94v-22.46h8.89c2.7,0,4.97.46,6.81,1.37,1.84.91,3.21,2.21,4.13,3.88.91,1.68,1.37,3.65,1.37,5.93s-.46,4.22-1.37,5.91Z"/>
      <path class="cls-1" d="m353.03,281.99c0,2.12-.39,3.93-1.17,5.44s-1.86,2.67-3.25,3.47c-1.38.8-3.02,1.2-4.91,1.2-2.77,0-4.94-.87-6.52-2.61-1.58-1.74-2.37-4.14-2.37-7.2v-31.45h-17.04v34.77c0,4.1.78,7.7,2.34,10.79,1.56,3.09,3.77,5.49,6.62,7.18,2.85,1.69,6.18,2.54,9.99,2.54,4.75,0,8.56-1.32,11.43-3.96,2.42-2.23,4.3-5.09,5.66-8.55l.25,11.82h16.02v-54.59h-17.04v31.15Z"/>
      <path class="cls-1" d="m425.03,257.3c-2.36-2.36-5.14-4.14-8.35-5.35-3.21-1.2-6.73-1.81-10.57-1.81-5.47,0-10.22,1.18-14.26,3.54-4.04,2.36-7.15,5.66-9.35,9.89-2.2,4.23-3.3,9.15-3.3,14.75s1.1,10.84,3.3,15.04,5.36,7.43,9.5,9.69c4.13,2.26,9.05,3.39,14.75,3.39,4.43,0,8.34-.63,11.74-1.9,3.4-1.27,6.22-3.07,8.45-5.4,2.23-2.33,3.8-5.05,4.71-8.18l-15.19-2.49c-.46,1.2-1.13,2.23-2.03,3.08-.9.85-1.97,1.48-3.22,1.9-1.25.42-2.65.63-4.17.63-2.21,0-4.15-.46-5.81-1.39s-2.95-2.33-3.88-4.2c-.84-1.69-1.28-3.78-1.36-6.23h36.44v-4.3c0-4.52-.64-8.51-1.93-11.96-1.29-3.45-3.11-6.36-5.47-8.72Zm-24.39,6.69c1.53-.99,3.4-1.49,5.62-1.49s4.07.49,5.57,1.46c1.5.98,2.63,2.38,3.39,4.2.52,1.23.84,2.64,1.01,4.2h-20.16c.17-1.56.52-2.97,1.08-4.22.8-1.77,1.96-3.16,3.49-4.15Z"/>
      <path class="cls-1" d="m471.24,250.15c-3,0-5.62.87-7.89,2.61-2.26,1.74-3.88,4.42-4.86,8.03h-.59v-9.96h-16.55v54.59h17.04v-29.79c0-2.18.47-4.08,1.42-5.71.94-1.63,2.25-2.91,3.91-3.83s3.53-1.39,5.62-1.39c1.04,0,2.22.07,3.54.22s2.38.37,3.2.66v-14.84c-.72-.2-1.51-.34-2.37-.44-.86-.1-1.68-.15-2.47-.15Z"/>
      <path class="cls-1" d="m511.36,292.78c-1.06.13-1.88.2-2.47.2-1.53,0-2.64-.35-3.32-1.05-.68-.7-1.03-1.77-1.03-3.2v-25.24h9.81v-12.65h-9.81v-12.99h-17.04v12.99h-7.23v12.65h7.23v26.76c0,5.21,1.5,9.17,4.49,11.89,2.99,2.72,7.39,4.08,13.18,4.08,1.59,0,3.29-.1,5.08-.29,1.79-.2,3.65-.57,5.57-1.12l-2.2-12.4c-.46.13-1.21.26-2.27.39Z"/>
      <path class="cls-1" d="m562.16,253.69c-4.1-2.36-9-3.54-14.7-3.54s-10.6,1.18-14.7,3.54c-4.1,2.36-7.25,5.65-9.45,9.86-2.2,4.22-3.3,9.14-3.3,14.77s1.1,10.51,3.3,14.72c2.2,4.22,5.35,7.5,9.45,9.86,4.1,2.36,9,3.54,14.7,3.54s10.6-1.18,14.7-3.54c4.1-2.36,7.24-5.65,9.42-9.86,2.18-4.22,3.27-9.12,3.27-14.72s-1.09-10.55-3.27-14.77c-2.18-4.22-5.32-7.5-9.42-9.86Zm-5.79,32.5c-.77,2.28-1.9,4.05-3.39,5.32-1.5,1.27-3.34,1.9-5.52,1.9s-4.02-.63-5.52-1.9c-1.5-1.27-2.63-3.04-3.39-5.32-.77-2.28-1.15-4.93-1.15-7.96s.38-5.67,1.15-7.93c.76-2.26,1.9-4.01,3.39-5.25,1.5-1.24,3.34-1.86,5.52-1.86s4.02.62,5.52,1.86c1.5,1.24,2.63,2.99,3.39,5.25.76,2.26,1.15,4.91,1.15,7.93s-.38,5.68-1.15,7.96Z"/>
      <path class="cls-1" d="m629.9,235.84c-3.97-2.12-8.69-3.17-14.16-3.17h-29.79v72.75h17.24v-22.71h12.06c5.57,0,10.37-1.04,14.4-3.12,4.04-2.08,7.14-4.98,9.33-8.69,2.18-3.71,3.27-8.07,3.27-13.09s-1.07-9.36-3.2-13.13c-2.13-3.78-5.18-6.72-9.16-8.84Zm-6.88,27.88c-.91,1.69-2.28,3.01-4.1,3.96-1.82.94-4.09,1.42-6.79,1.42h-8.94v-22.46h8.89c2.7,0,4.97.46,6.81,1.37,1.84.91,3.21,2.21,4.13,3.88.91,1.68,1.37,3.65,1.37,5.93s-.46,4.22-1.37,5.91Z"/>
      <path class="cls-1" d="m680.98,250.15c-3,0-5.62.87-7.89,2.61-2.26,1.74-3.88,4.42-4.86,8.03h-.59v-9.96h-16.55v54.59h17.04v-29.79c0-2.18.47-4.08,1.42-5.71.94-1.63,2.25-2.91,3.91-3.83s3.53-1.39,5.62-1.39c1.04,0,2.22.07,3.54.22s2.38.37,3.2.66v-14.84c-.72-.2-1.51-.34-2.37-.44-.86-.1-1.68-.15-2.47-.15Z"/>
      <rect class="cls-1" x="694.07" y="250.83" width="17.04" height="54.59"/>
      <path class="cls-1" d="m702.56,228.03c-2.41,0-4.48.8-6.2,2.39-1.73,1.6-2.59,3.53-2.59,5.81s.86,4.17,2.59,5.79c1.72,1.61,3.79,2.42,6.2,2.42s4.52-.8,6.25-2.39c1.72-1.59,2.59-3.52,2.59-5.76s-.86-4.26-2.59-5.86c-1.73-1.59-3.81-2.39-6.25-2.39Z"/>
      <path class="cls-1" d="m765.74,252.69c-2.83-1.69-6.15-2.54-9.96-2.54-4.82,0-8.65,1.33-11.5,3.98-2.41,2.24-4.26,5.09-5.59,8.52l-.29-11.82h-16.02v54.59h17.04v-31.15c0-2.15.39-3.97,1.17-5.47.78-1.5,1.88-2.64,3.3-3.44,1.42-.8,3.04-1.2,4.86-1.2,2.8,0,4.98.87,6.54,2.61,1.56,1.74,2.34,4.14,2.34,7.2v31.45h17.04v-34.77c0-4.1-.78-7.7-2.34-10.79-1.56-3.09-3.76-5.48-6.59-7.18Z"/>
      <path class="cls-1" d="m819.58,288.06c-.54,1.16-1.21,2.13-2,2.93-.8.8-1.7,1.4-2.71,1.81-1.01.41-2.15.61-3.42.61-2.18,0-4.04-.61-5.57-1.83-1.53-1.22-2.69-2.97-3.49-5.25-.8-2.28-1.2-4.98-1.2-8.11s.4-5.82,1.2-8.08c.8-2.26,1.96-3.99,3.49-5.18,1.53-1.19,3.38-1.78,5.57-1.78,1.24,0,2.37.2,3.39.59s1.92.98,2.69,1.76c.76.78,1.42,1.73,1.95,2.83.54,1.11.94,2.38,1.2,3.81l15.72-2.64c-.42-2.96-1.31-5.64-2.66-8.03-1.35-2.39-3.12-4.43-5.3-6.1-2.18-1.68-4.72-2.97-7.62-3.88-2.9-.91-6.09-1.37-9.57-1.37-5.7,0-10.6,1.18-14.7,3.54-4.1,2.36-7.25,5.65-9.45,9.86-2.2,4.22-3.3,9.14-3.3,14.77s1.1,10.51,3.3,14.72c2.2,4.22,5.35,7.5,9.45,9.86,4.1,2.36,9,3.54,14.7,3.54,3.48,0,6.68-.46,9.59-1.37,2.91-.91,5.46-2.23,7.64-3.96,2.18-1.73,3.95-3.8,5.3-6.23,1.35-2.42,2.24-5.17,2.66-8.23l-15.72-2.54c-.23,1.46-.61,2.78-1.15,3.93Z"/>
      <path class="cls-1" d="m889.16,257.3c-2.36-2.36-5.14-4.14-8.35-5.35-3.21-1.2-6.73-1.81-10.57-1.81-5.47,0-10.22,1.18-14.26,3.54-4.04,2.36-7.15,5.66-9.35,9.89-2.2,4.23-3.3,9.15-3.3,14.75s1.1,10.84,3.3,15.04,5.36,7.43,9.5,9.69c4.13,2.26,9.05,3.39,14.75,3.39,4.43,0,8.34-.63,11.74-1.9,3.4-1.27,6.22-3.07,8.45-5.4,2.23-2.33,3.8-5.05,4.71-8.18l-15.19-2.49c-.46,1.2-1.13,2.23-2.03,3.08-.9.85-1.97,1.48-3.22,1.9-1.25.42-2.65.63-4.17.63-2.21,0-4.15-.46-5.81-1.39s-2.95-2.33-3.88-4.2c-.84-1.69-1.28-3.78-1.36-6.23h36.44v-4.3c0-4.52-.64-8.51-1.93-11.96-1.29-3.45-3.11-6.36-5.47-8.72Zm-24.39,6.69c1.53-.99,3.4-1.49,5.62-1.49s4.07.49,5.57,1.46c1.5.98,2.63,2.38,3.39,4.2.52,1.23.84,2.64,1.01,4.2h-20.16c.17-1.56.52-2.97,1.08-4.22.8-1.77,1.96-3.16,3.49-4.15Z"/>
      <path class="cls-1" d="m938.01,273.25l-10.45-1.95c-2.34-.46-3.96-1.1-4.83-1.93s-1.32-1.8-1.32-2.91c0-1.4.71-2.51,2.12-3.34s3.15-1.25,5.2-1.25c2.31,0,4.22.51,5.74,1.54s2.51,2.45,3,4.27l15.04-2.39c-.62-3.12-1.96-5.82-4.03-8.08-2.07-2.26-4.79-4-8.15-5.22s-7.33-1.83-11.89-1.83c-4.88,0-9.12.69-12.72,2.08-3.6,1.38-6.38,3.36-8.35,5.93-1.97,2.57-2.95,5.68-2.95,9.33,0,4.2,1.34,7.61,4.03,10.23,2.69,2.62,6.73,4.45,12.13,5.49l9.52,1.86c2.28.46,3.96,1.07,5.05,1.83,1.09.77,1.64,1.78,1.64,3.05,0,1.37-.68,2.47-2.05,3.3s-3.24,1.25-5.62,1.25c-2.9,0-5.16-.6-6.79-1.81-1.63-1.2-2.78-2.99-3.47-5.37l-15.82,2.49c.65,3.48,2.1,6.47,4.35,8.96s5.16,4.39,8.74,5.71c3.58,1.32,7.7,1.98,12.35,1.98,4.98,0,9.39-.76,13.23-2.27,3.84-1.51,6.86-3.65,9.06-6.42,2.2-2.77,3.3-6.02,3.3-9.77,0-3.97-1.33-7.16-3.98-9.57-2.65-2.41-6.68-4.13-12.08-5.18Z"/>
      <path class="cls-1" d="m1008.52,260.57c-1.24-2.26-2.96-4.17-5.18-5.71-2.21-1.55-4.79-2.72-7.74-3.52-2.95-.8-6.11-1.2-9.5-1.2-4.56,0-8.54.66-11.94,1.98-3.4,1.32-6.15,3.16-8.25,5.52-2.1,2.36-3.51,5.1-4.22,8.23l15.43,2c.33-1.14.88-2.13,1.66-2.98.78-.85,1.78-1.5,3-1.95,1.22-.46,2.61-.68,4.17-.68s2.9.23,4,.68c1.11.46,1.95,1.12,2.54,2s.88,1.95.88,3.22v.2c0,1.11-.44,1.97-1.32,2.59-.88.62-2.26,1.08-4.15,1.39-1.89.31-4.38.59-7.47.85-2.77.23-5.37.68-7.81,1.37s-4.61,1.68-6.49,2.98c-1.89,1.3-3.36,3-4.42,5.08-1.06,2.08-1.59,4.64-1.59,7.67,0,3.58.76,6.57,2.29,8.96,1.53,2.39,3.65,4.18,6.37,5.37,2.72,1.19,5.82,1.78,9.3,1.78,2.54,0,4.81-.33,6.81-1s3.76-1.64,5.27-2.91,2.76-2.85,3.74-4.74h.44v7.67h16.02v-37.06c0-2.93-.62-5.53-1.86-7.79Zm-14.99,25.42c0,1.79-.46,3.37-1.37,4.74-.91,1.37-2.14,2.44-3.69,3.22-1.55.78-3.28,1.17-5.2,1.17-1.37,0-2.57-.22-3.61-.66-1.04-.44-1.87-1.07-2.49-1.9-.62-.83-.93-1.85-.93-3.05s.31-2.29.93-3.17c.62-.88,1.51-1.59,2.69-2.15,1.17-.55,2.59-.94,4.25-1.17.81-.13,1.66-.27,2.54-.42s1.76-.31,2.64-.49c.88-.18,1.68-.38,2.42-.61.73-.23,1.34-.47,1.83-.73v5.22Z"/>
    </g>
    <g>
      <path class="cls-1" d="m882.86,349.44c-1.86,0-3.43.62-4.7,1.87-1.27,1.25-1.9,2.79-1.9,4.63s.63,3.42,1.9,4.67c1.27,1.25,2.84,1.87,4.7,1.87s3.43-.62,4.7-1.87c1.27-1.25,1.9-2.8,1.9-4.67s-.63-3.38-1.9-4.63c-1.27-1.25-2.84-1.87-4.7-1.87Z"/>
      <path class="cls-1" d="m928.15,324.71c-2.93-1.69-6.44-2.53-10.52-2.53s-7.58.84-10.52,2.53c-2.94,1.69-5.19,4.04-6.76,7.06-1.57,3.02-2.36,6.54-2.36,10.57s.79,7.52,2.36,10.54c1.57,3.02,3.83,5.37,6.76,7.06,2.94,1.69,6.44,2.53,10.52,2.53s7.58-.84,10.52-2.53c2.94-1.69,5.18-4.04,6.75-7.06,1.56-3.02,2.34-6.53,2.34-10.54s-.78-7.55-2.34-10.57c-1.56-3.02-3.81-5.37-6.75-7.06Zm-4.14,23.26c-.55,1.63-1.36,2.9-2.43,3.81s-2.39,1.36-3.95,1.36-2.88-.45-3.95-1.36c-1.07-.91-1.88-2.18-2.43-3.81-.55-1.63-.82-3.53-.82-5.7s.27-4.06.82-5.68c.55-1.62,1.36-2.87,2.43-3.76,1.07-.88,2.39-1.33,3.95-1.33s2.88.44,3.95,1.33c1.07.89,1.88,2.14,2.43,3.76.55,1.62.82,3.51.82,5.68s-.27,4.07-.82,5.7Z"/>
      <path class="cls-1" d="m965.19,322.18c-2.14,0-4.02.62-5.64,1.87s-2.78,3.16-3.48,5.75h-.42v-7.13h-11.85v39.07h12.2v-21.32c0-1.56.34-2.92,1.01-4.09.67-1.17,1.61-2.08,2.79-2.74,1.19-.66,2.53-1,4.02-1,.75,0,1.59.05,2.53.16.94.1,1.71.26,2.29.47v-10.62c-.51-.14-1.08-.25-1.7-.31-.62-.07-1.21-.11-1.76-.11Z"/>
      <path class="cls-1" d="m998.32,322.67v6.71h-.35c-.49-1.19-1.22-2.34-2.18-3.44-.97-1.11-2.19-2.01-3.67-2.71-1.48-.7-3.26-1.05-5.33-1.05-2.75,0-5.31.72-7.67,2.15-2.37,1.43-4.28,3.63-5.75,6.59-1.47,2.96-2.2,6.72-2.2,11.29s.71,7.97,2.13,10.78c1.42,2.81,3.31,4.88,5.68,6.22,2.36,1.34,4.98,2.01,7.84,2.01,1.93,0,3.61-.28,5.01-.84,1.41-.56,2.57-1.32,3.5-2.27.92-.96,1.61-2.01,2.08-3.18h.94v6.92c0,2.33-.67,4.05-2.01,5.17s-3.26,1.68-5.75,1.68c-1.45,0-2.68-.18-3.7-.54-1.03-.36-1.85-.84-2.48-1.43-.63-.59-1.06-1.24-1.29-1.94l-10.59,2.17c.47,2.03,1.49,3.81,3.06,5.35,1.57,1.54,3.63,2.74,6.17,3.6,2.54.86,5.51,1.29,8.91,1.29,3.89,0,7.32-.61,10.27-1.83,2.96-1.22,5.27-3.05,6.94-5.47,1.67-2.42,2.5-5.43,2.5-9.02v-38.2h-12.06Zm-.84,24.93c-.58,1.53-1.42,2.69-2.52,3.48-1.1.79-2.42,1.19-3.98,1.19s-2.88-.4-3.97-1.21-1.9-1.96-2.46-3.48c-.56-1.51-.84-3.32-.84-5.42s.28-3.92.84-5.49c.56-1.56,1.38-2.78,2.46-3.65s2.41-1.31,3.97-1.31,2.92.43,4,1.28c1.08.85,1.92,2.06,2.5,3.62s.87,3.41.87,5.56-.29,3.91-.87,5.43Z"/>
    </g>
  </g>
</svg>